<?xml version="1.0" encoding="UTF-8"?>
<svg id="Layer_2" data-name="Layer 2" xmlns="http://www.w3.org/2000/svg" viewBox="0 0 384.4 334.94">
  <defs>
    <style>
      .cls-1 {
        fill: #25354f;
        font-family: Onest-Bold, Onest;
        font-size: 60.21px;
        font-weight: 700;
      }

      .cls-2 {
        letter-spacing: .02em;
      }

      .cls-3 {
        fill: #f26732;
      }

      .cls-4 {
        letter-spacing: 0em;
      }

      .cls-5 {
        letter-spacing: -.02em;
      }
    </style>
  </defs>
  <g id="Layer_1-2" data-name="Layer 1">
    <path class="cls-3" d="m298.32,221.92l-.28-100.95h-18.96l-.48,72.37-46.64-67.56-.8-125.79-16.87,18.72v17.73l-31.91.02v-17.88L165.1,0l-.39,127.74-82.76,119.87,11.93,11.27,52.21-70.36,18.37,22.56h0s27.46,33.73,27.46,33.73l7.01,8.61,6.4-7.93,26.9-33.31,18.47-22.88,50.62,69.97,14.65-11.81-17.64-25.54ZM182.33,48.89h31.96v14.35h-32.03l.07-14.35Zm-.26,26.07h32.44s-.02,14.2-.02,14.2h-32.44s.02-14.2.02-14.2Zm0,26.5h32.44s0,14.39,0,14.39h-32.44s0-14.39,0-14.39Zm50.09,93.5l-33.86,41.93-33.81-41.53h0s-12.52-15.37-12.52-15.37l30.28-50.34h29.9l33.42,48.7-13.42,16.62Z"/>
    <rect class="cls-3" x="137.15" y="231.51" width="7.43" height="7.43"/>
    <rect class="cls-3" x="147.91" y="231.51" width="7.43" height="7.43"/>
    <rect class="cls-3" x="147.91" y="243.09" width="7.43" height="7.43"/>
    <rect class="cls-3" x="137.15" y="243.09" width="7.43" height="7.43"/>
    <rect class="cls-3" x="240.69" y="233.59" width="7.43" height="7.43"/>
    <rect class="cls-3" x="251.45" y="233.59" width="7.43" height="7.43"/>
    <rect class="cls-3" x="251.45" y="245.17" width="7.43" height="7.43"/>
    <rect class="cls-3" x="240.69" y="245.17" width="7.43" height="7.43"/>
    <text class="cls-1" transform="translate(0 316.57)"><tspan class="cls-2" x="0" y="0">L</tspan><tspan class="cls-5" x="36.97" y="0">A</tspan><tspan x="78.7" y="0">GP</tspan><tspan class="cls-4" x="162.58" y="0">r</tspan><tspan x="186.78" y="0">operty</tspan></text>
  </g>
</svg>